<?xml version="1.0" encoding="UTF-8" standalone="no"?>
<!DOCTYPE svg PUBLIC "-//W3C//DTD SVG 1.1//EN"
 "http://www.w3.org/Graphics/SVG/1.1/DTD/svg11.dtd">
<!-- Generated by graphviz version 2.43.0 (0)
 -->
<!-- Title: UndirectedGraph Pages: 1 -->
<svg width="182pt" height="184pt"
 viewBox="0.00 0.00 182.17 184.05" xmlns="http://www.w3.org/2000/svg" xmlns:xlink="http://www.w3.org/1999/xlink">
<g id="graph0" class="graph" transform="scale(1 1) rotate(0) translate(4 180.05)">
<title>UndirectedGraph</title>
<polygon fill="white" stroke="transparent" points="-4,4 -4,-180.05 178.17,-180.05 178.17,4 -4,4"/>
<!-- 1 -->
<g id="node1" class="node">
<title>1</title>
<ellipse fill="none" stroke="black" cx="35.91" cy="-27.73" rx="27" ry="18"/>
<text text-anchor="middle" x="35.91" y="-24.03" font-family="Times,serif" font-size="14.00">1</text>
</g>
<!-- 2 -->
<g id="node2" class="node">
<title>2</title>
<ellipse fill="none" stroke="black" cx="119.76" cy="-18" rx="27" ry="18"/>
<text text-anchor="middle" x="119.76" y="-14.3" font-family="Times,serif" font-size="14.00">2</text>
</g>
<!-- 1&#45;&#45;2 -->
<g id="edge1" class="edge">
<title>1&#45;&#45;2</title>
<path fill="none" stroke="black" d="M62.9,-24.6C72.57,-23.48 83.46,-22.21 93.1,-21.09"/>
<text text-anchor="middle" x="73" y="-26.65" font-family="Times,serif" font-size="14.00">7</text>
</g>
<!-- 3 -->
<g id="node3" class="node">
<title>3</title>
<ellipse fill="none" stroke="black" cx="82.99" cy="-67.27" rx="27" ry="18"/>
<text text-anchor="middle" x="82.99" y="-63.57" font-family="Times,serif" font-size="14.00">3</text>
</g>
<!-- 1&#45;&#45;3 -->
<g id="edge2" class="edge">
<title>1&#45;&#45;3</title>
<path fill="none" stroke="black" d="M52.9,-42C57.22,-45.63 61.86,-49.53 66.17,-53.15"/>
<text text-anchor="middle" x="64.54" y="-36.38" font-family="Times,serif" font-size="14.00">9</text>
</g>
<!-- 6 -->
<g id="node4" class="node">
<title>6</title>
<ellipse fill="none" stroke="black" cx="27" cy="-109.59" rx="27" ry="18"/>
<text text-anchor="middle" x="27" y="-105.89" font-family="Times,serif" font-size="14.00">6</text>
</g>
<!-- 1&#45;&#45;6 -->
<g id="edge3" class="edge">
<title>1&#45;&#45;6</title>
<path fill="none" stroke="black" d="M33.93,-45.9C32.45,-59.46 30.45,-77.92 28.97,-91.48"/>
<text text-anchor="middle" x="21.95" y="-72.49" font-family="Times,serif" font-size="14.00">14</text>
</g>
<!-- 2&#45;&#45;3 -->
<g id="edge4" class="edge">
<title>2&#45;&#45;3</title>
<path fill="none" stroke="black" d="M107.72,-34.13C103.7,-39.52 99.21,-45.53 95.18,-50.93"/>
<text text-anchor="middle" x="110.95" y="-46.33" font-family="Times,serif" font-size="14.00">10</text>
</g>
<!-- 4 -->
<g id="node5" class="node">
<title>4</title>
<ellipse fill="none" stroke="black" cx="147.17" cy="-95.65" rx="27" ry="18"/>
<text text-anchor="middle" x="147.17" y="-91.95" font-family="Times,serif" font-size="14.00">4</text>
</g>
<!-- 2&#45;&#45;4 -->
<g id="edge5" class="edge">
<title>2&#45;&#45;4</title>
<path fill="none" stroke="black" d="M125.98,-35.62C130.47,-48.33 136.5,-65.41 140.98,-78.1"/>
<text text-anchor="middle" x="142.98" y="-60.66" font-family="Times,serif" font-size="14.00">15</text>
</g>
<!-- 3&#45;&#45;6 -->
<g id="edge7" class="edge">
<title>3&#45;&#45;6</title>
<path fill="none" stroke="black" d="M64.96,-80.89C58.57,-85.73 51.38,-91.16 44.99,-95.99"/>
<text text-anchor="middle" x="49.98" y="-77.24" font-family="Times,serif" font-size="14.00">2</text>
</g>
<!-- 3&#45;&#45;4 -->
<g id="edge6" class="edge">
<title>3&#45;&#45;4</title>
<path fill="none" stroke="black" d="M105.8,-77.36C111.85,-80.03 118.39,-82.92 124.43,-85.6"/>
<text text-anchor="middle" x="119.87" y="-70.28" font-family="Times,serif" font-size="14.00">11</text>
</g>
<!-- 5 -->
<g id="node6" class="node">
<title>5</title>
<ellipse fill="none" stroke="black" cx="93.52" cy="-158.05" rx="27" ry="18"/>
<text text-anchor="middle" x="93.52" y="-154.35" font-family="Times,serif" font-size="14.00">5</text>
</g>
<!-- 4&#45;&#45;5 -->
<g id="edge8" class="edge">
<title>4&#45;&#45;5</title>
<path fill="none" stroke="black" d="M133.63,-111.4C125.56,-120.79 115.34,-132.67 107.24,-142.09"/>
<text text-anchor="middle" x="115.44" y="-115.55" font-family="Times,serif" font-size="14.00">6</text>
</g>
<!-- 5&#45;&#45;6 -->
<g id="edge9" class="edge">
<title>5&#45;&#45;6</title>
<path fill="none" stroke="black" d="M74.99,-144.55C65.76,-137.83 54.64,-129.73 45.43,-123.02"/>
<text text-anchor="middle" x="55.21" y="-137.59" font-family="Times,serif" font-size="14.00">9</text>
</g>
</g>
</svg>
