<?xml version="1.0" encoding="UTF-8" standalone="no"?>
<!DOCTYPE svg PUBLIC "-//W3C//DTD SVG 1.1//EN"
 "http://www.w3.org/Graphics/SVG/1.1/DTD/svg11.dtd">
<!-- Generated by graphviz version 2.43.0 (0)
 -->
<!-- Title: DirectedGraph Pages: 1 -->
<svg width="399pt" height="479pt"
 viewBox="0.00 0.00 399.00 479.00" xmlns="http://www.w3.org/2000/svg" xmlns:xlink="http://www.w3.org/1999/xlink">
<g id="graph0" class="graph" transform="scale(1 1) rotate(0) translate(4 475)">
<title>DirectedGraph</title>
<polygon fill="white" stroke="transparent" points="-4,4 -4,-475 395,-475 395,4 -4,4"/>
<!-- 1 -->
<g id="node1" class="node">
<title>1</title>
<ellipse fill="none" stroke="black" cx="274" cy="-453" rx="27" ry="18"/>
<text text-anchor="middle" x="274" y="-449.3" font-family="Times,serif" font-size="14.00">1</text>
</g>
<!-- 2 -->
<g id="node2" class="node">
<title>2</title>
<ellipse fill="none" stroke="black" cx="184" cy="-366" rx="27" ry="18"/>
<text text-anchor="middle" x="184" y="-362.3" font-family="Times,serif" font-size="14.00">2</text>
</g>
<!-- 1&#45;&gt;2 -->
<g id="edge1" class="edge">
<title>1&#45;&gt;2</title>
<path fill="none" stroke="black" d="M250.69,-443.6C237.18,-437.8 220.6,-428.96 209,-417 202.49,-410.29 197.34,-401.55 193.45,-393.26"/>
<polygon fill="black" stroke="black" points="196.59,-391.71 189.45,-383.88 190.15,-394.46 196.59,-391.71"/>
<text text-anchor="middle" x="214" y="-405.8" font-family="Times,serif" font-size="14.00">7</text>
</g>
<!-- 3 -->
<g id="node3" class="node">
<title>3</title>
<ellipse fill="none" stroke="black" cx="167" cy="-18" rx="27" ry="18"/>
<text text-anchor="middle" x="167" y="-14.3" font-family="Times,serif" font-size="14.00">3</text>
</g>
<!-- 1&#45;&gt;3 -->
<g id="edge3" class="edge">
<title>1&#45;&gt;3</title>
<path fill="none" stroke="black" d="M247.23,-449.46C178.28,-442.19 0,-418.42 0,-367 0,-367 0,-367 0,-104 0,-45.99 81.03,-27.55 130.2,-21.71"/>
<polygon fill="black" stroke="black" points="130.6,-25.18 140.17,-20.64 129.85,-18.22 130.6,-25.18"/>
<text text-anchor="middle" x="5" y="-231.8" font-family="Times,serif" font-size="14.00">9</text>
</g>
<!-- 6 -->
<g id="node4" class="node">
<title>6</title>
<ellipse fill="none" stroke="black" cx="264" cy="-105" rx="27" ry="18"/>
<text text-anchor="middle" x="264" y="-101.3" font-family="Times,serif" font-size="14.00">6</text>
</g>
<!-- 1&#45;&gt;6 -->
<g id="edge5" class="edge">
<title>1&#45;&gt;6</title>
<path fill="none" stroke="black" d="M275.42,-435.02C278.79,-391.52 286.33,-272.51 277,-174 275.7,-160.26 272.95,-145.16 270.31,-132.69"/>
<polygon fill="black" stroke="black" points="273.73,-131.93 268.16,-122.92 266.89,-133.44 273.73,-131.93"/>
<text text-anchor="middle" x="290.5" y="-275.3" font-family="Times,serif" font-size="14.00">14</text>
</g>
<!-- 2&#45;&gt;1 -->
<g id="edge2" class="edge">
<title>2&#45;&gt;1</title>
<path fill="none" stroke="black" d="M198.88,-381.06C213.22,-394.6 235.1,-415.26 251.55,-430.8"/>
<polygon fill="black" stroke="black" points="249.46,-433.64 259.14,-437.96 254.27,-428.55 249.46,-433.64"/>
<text text-anchor="middle" x="239" y="-405.8" font-family="Times,serif" font-size="14.00">7</text>
</g>
<!-- 2&#45;&gt;3 -->
<g id="edge7" class="edge">
<title>2&#45;&gt;3</title>
<path fill="none" stroke="black" d="M162.63,-354.78C138.03,-341.35 101,-315.27 101,-280 101,-280 101,-280 101,-104 101,-76.94 122.12,-53.3 140.47,-37.86"/>
<polygon fill="black" stroke="black" points="142.98,-40.33 148.62,-31.36 138.61,-34.86 142.98,-40.33"/>
<text text-anchor="middle" x="110.5" y="-188.3" font-family="Times,serif" font-size="14.00">10</text>
</g>
<!-- 4 -->
<g id="node5" class="node">
<title>4</title>
<ellipse fill="none" stroke="black" cx="201" cy="-279" rx="27" ry="18"/>
<text text-anchor="middle" x="201" y="-275.3" font-family="Times,serif" font-size="14.00">4</text>
</g>
<!-- 2&#45;&gt;4 -->
<g id="edge9" class="edge">
<title>2&#45;&gt;4</title>
<path fill="none" stroke="black" d="M180.36,-348.07C178.89,-338.26 178.14,-325.76 181,-315 181.93,-311.51 183.29,-308.01 184.88,-304.64"/>
<polygon fill="black" stroke="black" points="188.08,-306.07 189.77,-295.62 181.93,-302.74 188.08,-306.07"/>
<text text-anchor="middle" x="190.5" y="-318.8" font-family="Times,serif" font-size="14.00">15</text>
</g>
<!-- 3&#45;&gt;1 -->
<g id="edge4" class="edge">
<title>3&#45;&gt;1</title>
<path fill="none" stroke="black" d="M192.81,-23.6C249.73,-34.48 381,-63.92 381,-104 381,-367 381,-367 381,-367 381,-404.89 339.35,-428.59 308.02,-441.05"/>
<polygon fill="black" stroke="black" points="306.41,-437.92 298.28,-444.71 308.87,-444.47 306.41,-437.92"/>
<text text-anchor="middle" x="386" y="-231.8" font-family="Times,serif" font-size="14.00">9</text>
</g>
<!-- 3&#45;&gt;2 -->
<g id="edge8" class="edge">
<title>3&#45;&gt;2</title>
<path fill="none" stroke="black" d="M141.63,-24.73C106.15,-34.41 46,-57.66 46,-104 46,-280 46,-280 46,-280 46,-327.99 107.25,-349.76 148.14,-358.95"/>
<polygon fill="black" stroke="black" points="147.54,-362.4 158.04,-361.02 148.97,-355.55 147.54,-362.4"/>
<text text-anchor="middle" x="55.5" y="-188.3" font-family="Times,serif" font-size="14.00">10</text>
</g>
<!-- 3&#45;&gt;6 -->
<g id="edge13" class="edge">
<title>3&#45;&gt;6</title>
<path fill="none" stroke="black" d="M182.72,-32.77C198.29,-46.42 222.34,-67.49 240.24,-83.18"/>
<polygon fill="black" stroke="black" points="238.15,-86.01 247.98,-89.96 242.77,-80.74 238.15,-86.01"/>
<text text-anchor="middle" x="226" y="-57.8" font-family="Times,serif" font-size="14.00">2</text>
</g>
<!-- 3&#45;&gt;4 -->
<g id="edge11" class="edge">
<title>3&#45;&gt;4</title>
<path fill="none" stroke="black" d="M169.24,-36.06C175.01,-80.03 190.44,-197.54 197.45,-250.93"/>
<polygon fill="black" stroke="black" points="194,-251.55 198.77,-261.01 200.94,-250.64 194,-251.55"/>
<text text-anchor="middle" x="193.5" y="-144.8" font-family="Times,serif" font-size="14.00">11</text>
</g>
<!-- 6&#45;&gt;1 -->
<g id="edge6" class="edge">
<title>6&#45;&gt;1</title>
<path fill="none" stroke="black" d="M283.13,-117.84C303.85,-132.31 334,-158.88 334,-191 334,-367 334,-367 334,-367 334,-392.77 315.37,-416.21 298.87,-431.92"/>
<polygon fill="black" stroke="black" points="296.12,-429.69 291.03,-438.99 300.8,-434.89 296.12,-429.69"/>
<text text-anchor="middle" x="343.5" y="-275.3" font-family="Times,serif" font-size="14.00">14</text>
</g>
<!-- 6&#45;&gt;3 -->
<g id="edge14" class="edge">
<title>6&#45;&gt;3</title>
<path fill="none" stroke="black" d="M257.38,-87.54C252.46,-76.93 244.89,-63.4 235,-54 224.98,-44.47 211.86,-36.9 199.81,-31.27"/>
<polygon fill="black" stroke="black" points="201.03,-27.99 190.47,-27.18 198.22,-34.4 201.03,-27.99"/>
<text text-anchor="middle" x="251" y="-57.8" font-family="Times,serif" font-size="14.00">2</text>
</g>
<!-- 5 -->
<g id="node6" class="node">
<title>5</title>
<ellipse fill="none" stroke="black" cx="241" cy="-192" rx="27" ry="18"/>
<text text-anchor="middle" x="241" y="-188.3" font-family="Times,serif" font-size="14.00">5</text>
</g>
<!-- 6&#45;&gt;5 -->
<g id="edge18" class="edge">
<title>6&#45;&gt;5</title>
<path fill="none" stroke="black" d="M259.47,-122.76C256.25,-134.62 251.88,-150.79 248.2,-164.4"/>
<polygon fill="black" stroke="black" points="244.78,-163.64 245.54,-174.21 251.53,-165.47 244.78,-163.64"/>
<text text-anchor="middle" x="258" y="-144.8" font-family="Times,serif" font-size="14.00">9</text>
</g>
<!-- 4&#45;&gt;2 -->
<g id="edge10" class="edge">
<title>4&#45;&gt;2</title>
<path fill="none" stroke="black" d="M202.37,-297.33C202.71,-307.06 202.43,-319.33 200,-330 199.29,-333.09 198.3,-336.24 197.15,-339.32"/>
<polygon fill="black" stroke="black" points="193.83,-338.19 193.1,-348.76 200.26,-340.95 193.83,-338.19"/>
<text text-anchor="middle" x="211.5" y="-318.8" font-family="Times,serif" font-size="14.00">15</text>
</g>
<!-- 4&#45;&gt;3 -->
<g id="edge12" class="edge">
<title>4&#45;&gt;3</title>
<path fill="none" stroke="black" d="M193.52,-261.47C183.54,-238.41 166.38,-195.03 160,-156 153.82,-118.24 158.16,-73.91 162.24,-46.13"/>
<polygon fill="black" stroke="black" points="165.74,-46.42 163.83,-36 158.82,-45.34 165.74,-46.42"/>
<text text-anchor="middle" x="169.5" y="-144.8" font-family="Times,serif" font-size="14.00">11</text>
</g>
<!-- 4&#45;&gt;5 -->
<g id="edge15" class="edge">
<title>4&#45;&gt;5</title>
<path fill="none" stroke="black" d="M206.61,-261.02C210.06,-251.19 214.81,-238.69 220,-228 221.68,-224.55 223.58,-220.99 225.55,-217.52"/>
<polygon fill="black" stroke="black" points="228.69,-219.09 230.77,-208.7 222.66,-215.52 228.69,-219.09"/>
<text text-anchor="middle" x="225" y="-231.8" font-family="Times,serif" font-size="14.00">6</text>
</g>
<!-- 5&#45;&gt;6 -->
<g id="edge17" class="edge">
<title>5&#45;&gt;6</title>
<path fill="none" stroke="black" d="M235.27,-174.36C232.75,-164.42 231.15,-151.69 235,-141 236.68,-136.33 239.29,-131.84 242.27,-127.72"/>
<polygon fill="black" stroke="black" points="245.08,-129.81 248.72,-119.86 239.67,-125.37 245.08,-129.81"/>
<text text-anchor="middle" x="240" y="-144.8" font-family="Times,serif" font-size="14.00">9</text>
</g>
<!-- 5&#45;&gt;4 -->
<g id="edge16" class="edge">
<title>5&#45;&gt;4</title>
<path fill="none" stroke="black" d="M239.24,-210.33C237.74,-220.28 234.99,-232.78 230,-243 227.82,-247.46 224.96,-251.85 221.89,-255.92"/>
<polygon fill="black" stroke="black" points="219.07,-253.83 215.42,-263.77 224.48,-258.28 219.07,-253.83"/>
<text text-anchor="middle" x="240" y="-231.8" font-family="Times,serif" font-size="14.00">6</text>
</g>
</g>
</svg>
