<?xml version="1.0" encoding="UTF-8" standalone="no"?>
<!DOCTYPE svg PUBLIC "-//W3C//DTD SVG 1.1//EN"
 "http://www.w3.org/Graphics/SVG/1.1/DTD/svg11.dtd">
<!-- Generated by graphviz version 2.43.0 (0)
 -->
<!-- Title: UndirectedGraph Pages: 1 -->
<svg width="158pt" height="479pt"
 viewBox="0.00 0.00 158.00 479.00" xmlns="http://www.w3.org/2000/svg" xmlns:xlink="http://www.w3.org/1999/xlink">
<g id="graph0" class="graph" transform="scale(1 1) rotate(0) translate(4 475)">
<title>UndirectedGraph</title>
<polygon fill="white" stroke="transparent" points="-4,4 -4,-475 154,-475 154,4 -4,4"/>
<!-- 1 -->
<g id="node1" class="node">
<title>1</title>
<ellipse fill="none" stroke="black" cx="90" cy="-453" rx="27" ry="18"/>
<text text-anchor="middle" x="90" y="-449.3" font-family="Times,serif" font-size="14.00">1</text>
</g>
<!-- 2 -->
<g id="node2" class="node">
<title>2</title>
<ellipse fill="none" stroke="black" cx="27" cy="-366" rx="27" ry="18"/>
<text text-anchor="middle" x="27" y="-362.3" font-family="Times,serif" font-size="14.00">2</text>
</g>
<!-- 1&#45;&#45;2 -->
<g id="edge1" class="edge">
<title>1&#45;&#45;2</title>
<path fill="none" stroke="black" d="M78.44,-436.41C67.08,-421.07 49.82,-397.79 38.48,-382.49"/>
<text text-anchor="middle" x="68" y="-405.8" font-family="Times,serif" font-size="14.00">7</text>
</g>
<!-- 3 -->
<g id="node3" class="node">
<title>3</title>
<ellipse fill="none" stroke="black" cx="76" cy="-279" rx="27" ry="18"/>
<text text-anchor="middle" x="76" y="-275.3" font-family="Times,serif" font-size="14.00">3</text>
</g>
<!-- 1&#45;&#45;3 -->
<g id="edge2" class="edge">
<title>1&#45;&#45;3</title>
<path fill="none" stroke="black" d="M88.61,-434.88C85.92,-401.91 80.07,-329.97 77.39,-297.05"/>
<text text-anchor="middle" x="89" y="-362.3" font-family="Times,serif" font-size="14.00">9</text>
</g>
<!-- 6 -->
<g id="node4" class="node">
<title>6</title>
<ellipse fill="none" stroke="black" cx="89" cy="-18" rx="27" ry="18"/>
<text text-anchor="middle" x="89" y="-14.3" font-family="Times,serif" font-size="14.00">6</text>
</g>
<!-- 1&#45;&#45;6 -->
<g id="edge3" class="edge">
<title>1&#45;&#45;6</title>
<path fill="none" stroke="black" d="M102.52,-436.77C114.58,-420.53 131,-393.54 131,-367 131,-367 131,-367 131,-104 131,-77.33 114.18,-50.38 101.83,-34.18"/>
<text text-anchor="middle" x="140.5" y="-231.8" font-family="Times,serif" font-size="14.00">14</text>
</g>
<!-- 2&#45;&#45;3 -->
<g id="edge4" class="edge">
<title>2&#45;&#45;3</title>
<path fill="none" stroke="black" d="M36.22,-349.01C44.92,-333.91 57.91,-311.38 66.66,-296.21"/>
<text text-anchor="middle" x="64.5" y="-318.8" font-family="Times,serif" font-size="14.00">10</text>
</g>
<!-- 4 -->
<g id="node5" class="node">
<title>4</title>
<ellipse fill="none" stroke="black" cx="34" cy="-192" rx="27" ry="18"/>
<text text-anchor="middle" x="34" y="-188.3" font-family="Times,serif" font-size="14.00">4</text>
</g>
<!-- 2&#45;&#45;4 -->
<g id="edge5" class="edge">
<title>2&#45;&#45;4</title>
<path fill="none" stroke="black" d="M24.44,-348.04C21.7,-327.43 18.1,-291.61 21,-261 22.67,-243.41 26.71,-223.6 29.84,-209.92"/>
<text text-anchor="middle" x="30.5" y="-275.3" font-family="Times,serif" font-size="14.00">15</text>
</g>
<!-- 3&#45;&#45;6 -->
<g id="edge7" class="edge">
<title>3&#45;&#45;6</title>
<path fill="none" stroke="black" d="M76.85,-261.01C79.21,-214.08 85.78,-83.06 88.14,-36.06"/>
<text text-anchor="middle" x="87" y="-144.8" font-family="Times,serif" font-size="14.00">2</text>
</g>
<!-- 3&#45;&#45;4 -->
<g id="edge6" class="edge">
<title>3&#45;&#45;4</title>
<path fill="none" stroke="black" d="M66.28,-261.81C62.89,-255.96 59.15,-249.25 56,-243 50.54,-232.16 45.04,-219.66 40.9,-209.87"/>
<text text-anchor="middle" x="65.5" y="-231.8" font-family="Times,serif" font-size="14.00">11</text>
</g>
<!-- 5 -->
<g id="node6" class="node">
<title>5</title>
<ellipse fill="none" stroke="black" cx="34" cy="-105" rx="27" ry="18"/>
<text text-anchor="middle" x="34" y="-101.3" font-family="Times,serif" font-size="14.00">5</text>
</g>
<!-- 4&#45;&#45;5 -->
<g id="edge8" class="edge">
<title>4&#45;&#45;5</title>
<path fill="none" stroke="black" d="M34,-173.8C34,-159.05 34,-137.92 34,-123.18"/>
<text text-anchor="middle" x="39" y="-144.8" font-family="Times,serif" font-size="14.00">6</text>
</g>
<!-- 5&#45;&#45;6 -->
<g id="edge9" class="edge">
<title>5&#45;&#45;6</title>
<path fill="none" stroke="black" d="M43.59,-88.12C49.62,-78.23 57.63,-65.29 65,-54 69.19,-47.58 73.93,-40.6 78.09,-34.58"/>
<text text-anchor="middle" x="70" y="-57.8" font-family="Times,serif" font-size="14.00">9</text>
</g>
</g>
</svg>
